<?xml version="1.0" encoding="utf-8"?>
<!-- Generator: Adobe Illustrator 17.1.0, SVG Export Plug-In . SVG Version: 6.00 Build 0)  -->
<!DOCTYPE svg PUBLIC "-//W3C//DTD SVG 1.1//EN" "http://www.w3.org/Graphics/SVG/1.1/DTD/svg11.dtd">
<svg version="1.1" id="Слой_1" xmlns="http://www.w3.org/2000/svg" xmlns:xlink="http://www.w3.org/1999/xlink" x="0px" y="0px"
	 width="30px" height="30px" viewBox="0 0 30 30" enable-background="new 0 0 30 30" xml:space="preserve">
<g>
	<path fill="#FFFFFF" d="M15,0.4C6.9,0.4,0.4,6.9,0.4,15S6.9,29.5,15,29.5S29.6,23,29.6,15S23.1,0.4,15,0.4z M15,27
		C8.3,27,2.9,21.6,2.9,14.8S8.3,2.7,15,2.7c6.7,0,12.1,5.4,12.1,12.1S21.7,27,15,27z"/>
	<path fill="#FFFFFF" d="M20.2,13.7h-3.9v-4c0-0.3-0.1-0.9-0.8-0.9h-1c-0.7,0-0.8,0.7-0.8,0.9v3.9h-4c-0.7,0-0.8,0.5-0.8,0.7v1.1
		c0,0.1,0.1,0.7,0.8,0.7h4v4c0,0.7,0.5,0.8,0.7,0.8h1.1c0.1,0,0.7-0.1,0.7-0.8v-4h4c0.3,0,0.9-0.1,0.9-0.8v-1
		C21.1,13.8,20.4,13.7,20.2,13.7z"/>
</g>
</svg>
