<?xml version="1.0" encoding="utf-8"?>
<!-- Generator: Adobe Illustrator 17.1.0, SVG Export Plug-In . SVG Version: 6.00 Build 0)  -->
<!DOCTYPE svg PUBLIC "-//W3C//DTD SVG 1.1//EN" "http://www.w3.org/Graphics/SVG/1.1/DTD/svg11.dtd">
<svg version="1.1" id="Слой_1" xmlns="http://www.w3.org/2000/svg" xmlns:xlink="http://www.w3.org/1999/xlink" x="0px" y="0px"
	 width="18px" height="14px" viewBox="0 0 18 14" enable-background="new 0 0 18 14" xml:space="preserve">
<g>
	<path fill="#FFFFFF" d="M12.7,14H1.2c-0.5,0-0.9-0.4-0.9-1s0.4-1,0.9-1h11.5c0.5,0,0.9,0.4,0.9,1C13.6,13.6,13.2,14,12.7,14
		L12.7,14z"/>
	<path fill="#FFFFFF" d="M16.7,8.1H1.5c-0.7,0-1.2-0.4-1.2-1s0.5-1,1.2-1h15.3c0.6,0,1.2,0.4,1.2,1S17.4,8.1,16.7,8.1L16.7,8.1z"/>
	<path fill="#FFFFFF" d="M14.7,2.2H1.3c-0.6,0-1-0.4-1-1s0.5-1,1-1h13.4c0.6,0,1,0.4,1,1S15.2,2.2,14.7,2.2L14.7,2.2z"/>
</g>
</svg>
