<?xml version="1.0" encoding="utf-8"?>
<!-- Generator: Adobe Illustrator 17.1.0, SVG Export Plug-In . SVG Version: 6.00 Build 0)  -->
<!DOCTYPE svg PUBLIC "-//W3C//DTD SVG 1.1//EN" "http://www.w3.org/Graphics/SVG/1.1/DTD/svg11.dtd">
<svg version="1.1" id="Слой_1" xmlns="http://www.w3.org/2000/svg" xmlns:xlink="http://www.w3.org/1999/xlink" x="0px" y="0px"
	 width="19px" height="19px" viewBox="0 0 19 19" enable-background="new 0 0 19 19" xml:space="preserve">
<path fill="#FFFFFF" d="M9.9,18.3C5,18.3,1,14.3,1,9.3c0-3.6,2.1-6.9,5.3-8.3c0.3-0.1,0.7,0,0.8,0.3c0.1,0.2,0.1,0.3,0,0.5
	C6.7,2.7,6.6,3.8,6.6,5c0,4.3,3.5,7.7,7.7,7.7c1.2,0,2.3-0.2,3.1-0.6c0.3-0.1,0.7,0,0.8,0.3c0.1,0.2,0.1,0.3,0,0.5
	C16.8,16.2,13.6,18.3,9.9,18.3z"/>
<path fill="#FFFFFF" d="M13.7,7.7c-0.2,0-0.3-0.1-0.4-0.3l-0.5-1.2c0-0.1-0.1-0.1-0.1-0.1l-1.2-0.5c-0.2-0.1-0.3-0.3-0.2-0.5
	c0-0.1,0.1-0.2,0.2-0.2l1.2-0.5c0.1,0,0.1-0.1,0.1-0.1L13.3,3c0.1-0.1,0.2-0.3,0.3-0.3c0.2,0,0.4,0.1,0.4,0.3l0.5,1.2
	c0,0.1,0.1,0.1,0.1,0.1l1.2,0.5c0.2,0.1,0.3,0.3,0.2,0.5c0,0.1-0.1,0.2-0.2,0.2l-1.2,0.5c-0.1,0-0.1,0.1-0.1,0.1l-0.5,1.2
	C14,7.6,13.9,7.7,13.7,7.7z"/>
</svg>
