<?xml version="1.0" encoding="utf-8"?>
<!-- Generator: Adobe Illustrator 17.1.0, SVG Export Plug-In . SVG Version: 6.00 Build 0)  -->
<!DOCTYPE svg PUBLIC "-//W3C//DTD SVG 1.1//EN" "http://www.w3.org/Graphics/SVG/1.1/DTD/svg11.dtd">
<svg version="1.1" id="Слой_4" xmlns="http://www.w3.org/2000/svg" xmlns:xlink="http://www.w3.org/1999/xlink" x="0px" y="0px"
	 width="20px" height="60px" viewBox="0 0 20 60" enable-background="new 0 0 20 60" xml:space="preserve">
<path id="_x32_" fill="#5883ED" d="M9.6,58.7c-5.2-4.6-8.9-7-8.9-10.8c0-2.9,2.1-5.3,4.9-5.3c2,0,3.4,1.2,4.3,2.9
	c0.9-1.7,2.4-2.9,4.3-2.9c2.8,0,4.9,2.4,4.9,5.3c0,3.8-3.7,6.2-8.9,10.8C10.2,58.9,9.8,58.9,9.6,58.7L9.6,58.7z"/>
<path id="_x31_" fill="#BBBBBB" d="M9.6,16.5c-5.2-4.6-8.9-7-8.9-10.8c0-2.9,2.1-5.3,4.9-5.3c2,0,3.4,1.2,4.3,2.9
	c0.9-1.7,2.4-2.9,4.3-2.9c2.8,0,4.9,2.4,4.9,5.3c0,3.8-3.7,6.2-8.9,10.8C10.2,16.6,9.8,16.6,9.6,16.5L9.6,16.5z"/>
</svg>
