<?xml version="1.0" encoding="utf-8"?>
<!-- Generator: Adobe Illustrator 17.1.0, SVG Export Plug-In . SVG Version: 6.00 Build 0)  -->
<!DOCTYPE svg PUBLIC "-//W3C//DTD SVG 1.1//EN" "http://www.w3.org/Graphics/SVG/1.1/DTD/svg11.dtd">
<svg version="1.1" id="Слой_1" xmlns="http://www.w3.org/2000/svg" xmlns:xlink="http://www.w3.org/1999/xlink" x="0px" y="0px"
	 width="18px" height="60px" viewBox="0 0 18 60" enable-background="new 0 0 18 60" xml:space="preserve">
<g id="_x33_">
	<path fill="#FDB226" d="M18,48.3c-0.3-2.9-2.3-5-4.9-5c-1.7,0-3.3,0.9-4.1,2.4c-0.9-1.5-2.4-2.4-4-2.4c-2.6,0-4.6,2.1-4.9,5
		c0,0.1-0.1,0.8,0.2,1.9c0.4,1.6,1.2,3,2.5,4.2L8.9,60l6.4-5.7c1.3-1.1,2.1-2.6,2.5-4.2C18.1,49.1,18,48.4,18,48.3z"/>
</g>
<g id="_x32_">
	<path opacity="0.2" stroke="#FFFFFF" stroke-miterlimit="10" enable-background="new    " d="M17.2,26.3c-0.2-2.6-2.1-4.6-4.5-4.6
		c-1.6,0-3,0.9-3.8,2.1c-0.7-1.3-2.1-2.1-3.7-2.1c-2.3,0-4.2,1.9-4.5,4.6c0.1,0.1,0,0.7,0.2,1.7c0.3,1.5,1.1,2.8,2.2,3.8L9,37
		l5.8-5.2c1.2-1.1,1.9-2.3,2.2-3.8C17.3,27,17.2,26.4,17.2,26.3z"/>
	<path fill="none" stroke="#FFFFFF" stroke-width="1.6" stroke-miterlimit="10" d="M17.1,26.6c-0.3-2.6-2-4.5-4.4-4.5
		c-1.6,0-2.9,0.8-3.7,2.1c-0.7-1.3-2.1-2.1-3.7-2.1c-2.3,0-4.1,1.8-4.3,4.5c0,0.1-0.1,0.7,0.2,1.7c0.3,1.4,1,2.7,2.2,3.7L9,37.2
		l5.8-5.1c1.2-1,1.9-2.3,2.2-3.8C17.2,27.3,17.1,26.7,17.1,26.6z"/>
</g>
<g id="_x31_">
	<path fill="#E3E3E3" d="M18,5c-0.3-2.9-2.3-5-4.9-5C11.4,0,9.8,0.9,9,2.4C8.1,0.9,6.6,0,4.9,0C2.3,0,0.3,2.1,0,5
		c0,0.1-0.1,0.8,0.2,1.9c0.4,1.6,1.2,3,2.5,4.2L9,16.8l6.4-5.7c1.3-1.1,2.1-2.6,2.5-4.2C18.1,5.8,18,5.1,18,5z"/>
</g>
</svg>
