<?xml version="1.0" encoding="utf-8"?>
<!-- Generator: Adobe Illustrator 17.1.0, SVG Export Plug-In . SVG Version: 6.00 Build 0)  -->
<!DOCTYPE svg PUBLIC "-//W3C//DTD SVG 1.1//EN" "http://www.w3.org/Graphics/SVG/1.1/DTD/svg11.dtd">
<svg version="1.1" id="Слой_1" xmlns="http://www.w3.org/2000/svg" xmlns:xlink="http://www.w3.org/1999/xlink" x="0px" y="0px"
	 width="18px" height="18px" viewBox="0 0 18 18" enable-background="new 0 0 18 18" xml:space="preserve">
<g>
	<g>
		<path fill="#7092FE" d="M7.5,0.2c-4.1,0-7.3,3.2-7.3,7.3s3.2,7.3,7.3,7.3s7.3-3.2,7.3-7.3S11.4,0.2,7.5,0.2z M7.5,12.2
			c-2.6,0-4.7-2.1-4.7-4.7s2.1-4.7,4.7-4.7s4.7,2.1,4.7,4.7S10.1,12.2,7.5,12.2z"/>
	</g>
	<g>
		<path fill="#7092FE" d="M17.5,15.7L15,13.2c-0.5-0.5-1.3-0.5-1.8,0s-0.5,1.3,0,1.8l2.5,2.5c0.5,0.5,1.3,0.5,1.8,0
			C18,17.1,18,16.2,17.5,15.7z"/>
	</g>
</g>
</svg>
