<?xml version="1.0" encoding="utf-8"?>
<!-- Generator: Adobe Illustrator 17.1.0, SVG Export Plug-In . SVG Version: 6.00 Build 0)  -->
<!DOCTYPE svg PUBLIC "-//W3C//DTD SVG 1.1//EN" "http://www.w3.org/Graphics/SVG/1.1/DTD/svg11.dtd">
<svg version="1.1" id="Слой_1" xmlns="http://www.w3.org/2000/svg" xmlns:xlink="http://www.w3.org/1999/xlink" x="0px" y="0px"
	 width="19px" height="19px" viewBox="0 0 19 19" enable-background="new 0 0 19 19" xml:space="preserve">
<path id="_x31__1_" fill="#FFFFFF" d="M9.4,0.2c-5.1,0-9.3,4.1-9.3,9.3s4.1,9.3,9.3,9.3c5.1,0,9.3-4.1,9.3-9.3S14.5,0.2,9.4,0.2z
	 M9.4,3c1.7,0,3.1,1.4,3.1,3.1s-1.4,3.1-3.1,3.1C7.7,9.1,6.3,7.7,6.3,6S7.7,3,9.4,3z M9.4,16.3c-1.7,0-3.2-0.6-4.4-1.6
	c-0.3-0.2-0.5-0.6-0.5-1c0-1.7,1.4-3.1,3.1-3.1h3.6c1.7,0,3.1,1.4,3.1,3.1c0,0.4-0.2,0.7-0.5,1C12.6,15.7,11.1,16.3,9.4,16.3z"/>
</svg>
